<svg xmlns="http://www.w3.org/2000/svg" viewBox="-3 -3 33 33" width="32" height="32">
<path d="M8.59208 17.1137C7.90304 15.9985 7.53526 14.7214 7.52777 13.4181C7.52777 13.3459 7.54728 13.2801 7.54945 13.2058C7.60262 11.6319 8.17085 10.1163 9.17035 8.88263C10.1698 7.64894 11.5477 6.76241 13.1008 6.35376C13.4822 6.25011 13.8703 6.1721 14.2626 6.12026C13.9798 6.07966 13.6944 6.05839 13.4086 6.05658C12.7224 6.06587 12.0407 6.16583 11.3818 6.35376C9.8286 6.7621 8.45054 7.64855 7.45099 8.8823C6.45145 10.1161 5.88335 11.6318 5.83052 13.2058C5.83052 13.278 5.80884 13.3438 5.80884 13.4181C5.81535 14.7216 6.18321 15.9989 6.87315 17.1137C7.61372 18.3551 8.70824 19.3578 10.0224 19.9988C11.3366 20.6399 12.8133 20.8913 14.2713 20.7222C13.104 20.5924 11.9834 20.1989 10.9979 19.5727C10.0123 18.9465 9.18876 18.1047 8.59208 17.1137Z" fill="url(#a)"/>
<path d="M0.00108401 13.4159C0.00108401 13.5221 0.0140927 13.6282 0.0162606 13.7322C0.0927198 17.1327 1.51878 20.3704 3.99208 22.7588C6.46538 25.1471 9.79144 26.4983 13.265 26.5259C16.7387 26.5536 20.0867 25.2554 22.5993 22.9066C25.1118 20.5579 26.5914 17.3433 26.7242 13.9445C26.7242 13.7683 26.7502 13.5942 26.7502 13.4159C26.7727 11.6821 26.4435 9.96118 25.7814 8.35295C25.1194 6.74473 24.1378 5.28123 22.8937 4.04736C21.6495 2.8135 20.1675 1.83382 18.5336 1.16517C16.8997 0.496524 15.1465 0.152206 13.3756 0.152206C11.6048 0.152206 9.85158 0.496524 8.2177 1.16517C6.58382 1.83382 5.1018 2.8135 3.85762 4.04736C2.61344 5.28123 1.63187 6.74473 0.969849 8.35295C0.307829 9.96118 -0.0214599 11.6821 0.00108401 13.4159ZM20.8927 13.4159C20.8696 15.3607 20.0703 17.2195 18.6658 18.5948C17.2612 19.9701 15.3629 20.7527 13.3767 20.7753C11.9029 20.7759 10.4615 20.3512 9.23263 19.5545C8.00376 18.7578 7.04184 17.6242 6.467 16.2953C5.89216 14.9665 5.72989 13.5012 6.00043 12.0826C6.27098 10.664 6.96236 9.35483 7.98823 8.31866C9.01411 7.28249 10.329 6.5652 11.7687 6.2564C13.2084 5.94759 14.7092 6.06094 16.0835 6.58229C17.4578 7.10365 18.6448 8.00989 19.4962 9.18786C20.3477 10.3658 20.8258 11.7633 20.871 13.2058C20.8732 13.2779 20.8927 13.3437 20.8927 13.4159Z" fill="#9AD3FF"/>
<path d="M0.0357788 13.9445C0.0357788 13.7683 0.00976562 13.5942 0.00976562 13.4159C2.85832 13.4159 4.17854 15.9101 5.58114 18.5634C7.33493 21.8791 9.6697 24.1461 13.7995 24.1525C24.9877 24.1652 26.6245 15.4494 26.7415 13.7322C26.6562 17.1267 25.2264 20.3557 22.7542 22.7368C20.282 25.118 16.9612 26.4646 13.4936 26.4922C10.0259 26.5197 6.68318 25.2261 4.17184 22.8845C1.6605 20.543 0.177324 17.3371 0.0357788 13.9445Z" fill="#33A6FF"/>
<path d="M7.97217 21.8939C7.97217 21.8939 9.32705 26.5129 13.3917 26.5129C19.8452 26.5129 26.7497 21.4758 26.7497 13.4159C26.7497 13.4159 26.4115 23.9253 13.899 24.1525C13.8599 24.1525 10.0771 24.0017 7.97217 21.8939Z" fill="url(#b)"/>
<path d="M13.3679 0.318936C9.87623 0.318003 6.52276 1.65493 4.02475 4.04377C1.52674 6.43262 0.0825214 9.68373 0.000976562 13.1018C0.118041 11.3866 1.75477 2.66663 12.943 2.68149C17.062 2.68149 19.4076 4.95276 21.1614 8.2684C22.5661 10.9218 23.8842 13.4159 26.7327 13.4159C26.7327 13.2376 26.7132 13.0636 26.7067 12.8874C26.5702 9.5116 25.1056 6.31834 22.6194 3.97577C20.1333 1.63321 16.8182 0.322865 13.3679 0.318936Z" fill="#33A6FF"/>
<path d="M18.7785 4.94003C18.7785 4.94003 17.4236 0.318935 13.359 0.318935C6.90761 0.318935 0.000976562 5.35819 0.000976562 13.4159C0.000976562 13.4159 0.341322 2.90649 12.8517 2.68149C12.8908 2.67937 16.6736 2.8322 18.7785 4.94003Z" fill="url(#c)"/>
<defs>
<radialGradient id="a" cx="0" cy="0" r="1" gradientUnits="userSpaceOnUse" gradientTransform="translate(6 13.5) scale(8 7.83413)">
<stop stop-color="#33A6FF"/><stop offset="1" stop-color="#0F6DB6"/>
</radialGradient>
<linearGradient id="b" x1="26.7432" y1="19.9644" x2="7.97217" y2="19.9644" gradientUnits="userSpaceOnUse">
<stop stop-color="#33A6FF"/><stop offset="1" stop-color="#0F6DB6"/>
</linearGradient>
<linearGradient id="c" x1="0.00964779" y1="6.86743" x2="18.7807" y2="6.86743" gradientUnits="userSpaceOnUse">
<stop stop-color="#33A6FF"/><stop offset="1" stop-color="#0F6DB6"/>
</linearGradient>
</defs>
</svg>
